<svg xmlns="http://www.w3.org/2000/svg" xmlns:xlink="http://www.w3.org/1999/xlink" width="1920" zoomAndPan="magnify" viewBox="0 0 1440 809.999993" height="1080" preserveAspectRatio="xMidYMid meet" version="1.0"><defs><clipPath id="aba87ad079"><path d="M 0 0 L 1440 0 L 1440 238.382812 L 0 238.382812 Z M 0 0 " clip-rule="nonzero"/></clipPath><clipPath id="c02d75142c"><path d="M 1369.125 -0.00390625 L 70.875 -0.00390625 L 0 238.382812 L 1440 238.382812 Z M 1369.125 -0.00390625 " clip-rule="nonzero"/></clipPath><clipPath id="74d8912d29"><path d="M 81 0 L 1359 0 L 1359 603.726562 L 81 603.726562 Z M 81 0 " clip-rule="nonzero"/></clipPath><clipPath id="46eb729566"><path d="M 81 384.875 L 1359 384.875 L 1359 810 L 81 810 Z M 81 384.875 " clip-rule="nonzero"/></clipPath><clipPath id="b7a5b54e7a"><path d="M 1168.875 384.875 C 1273.878906 384.875 1359 480.042969 1359 597.4375 C 1359 714.832031 1273.878906 810 1168.875 810 L 271.125 810 C 166.121094 810 81 714.832031 81 597.4375 C 81 480.042969 166.121094 384.875 271.125 384.875 Z M 1168.875 384.875 " clip-rule="nonzero"/></clipPath></defs><g clip-path="url(#aba87ad079)"><g clip-path="url(#c02d75142c)"><path fill="#162b49" d="M 1440 238.382812 L 0.363281 238.382812 L 0.363281 -0.00390625 L 1440 -0.00390625 Z M 1440 238.382812 " fill-opacity="1" fill-rule="nonzero"/></g></g><g clip-path="url(#74d8912d29)"><path fill="#264b80" d="M 81 0 L 1359.203125 0 L 1359.203125 603.726562 L 81 603.726562 Z M 81 0 " fill-opacity="1" fill-rule="nonzero"/></g><g clip-path="url(#46eb729566)"><g clip-path="url(#b7a5b54e7a)"><path fill="#264b80" d="M 81 384.875 L 1359.695312 384.875 L 1359.695312 810 L 81 810 Z M 81 384.875 " fill-opacity="1" fill-rule="nonzero"/></g></g></svg>